<svg width="260" height="64" viewBox="0 0 260 64" fill="none" xmlns="http://www.w3.org/2000/svg">
<path d="M49.7561 57.3727C49.7561 60.6064 46.6178 63.6838 43.3395 63.6838H6.96549C3.69296 63.6838 0.548828 60.6064 0.548828 57.3727V6.48167C0.548828 3.24765 3.68055 0.169861 6.96549 0.169861H43.3398C46.624 0.169861 49.7565 3.24765 49.7565 6.48167V57.3727H49.7561Z" fill="#FDFEFF"/>
<path d="M2.49023 36.874C2.49023 36.874 10.4018 33.913 17.374 34.1508C25.0908 34.4197 25.8175 35.0912 33.6018 36.5931C38.1992 37.4781 43.4008 37.2767 47.8081 35.8599L47.8143 56.0417C47.8143 59.3445 45.5005 61.6646 42.1915 61.6646H8.10071C4.82854 61.6646 2.4906 59.3321 2.4906 56.0417L2.49023 36.874Z" fill="#1C4FB9"/>
<path d="M2.29663 48.5253C2.29663 48.5253 10.5796 44.9624 17.3552 44.4185C24.5678 43.841 26.6891 44.5163 34.5167 46.1078C39.1058 47.0406 44.6287 46.1005 47.8626 44.5152L47.8557 46.0166C44.6185 47.598 39.1131 48.3345 34.52 47.4495C26.7361 45.9499 24.1921 45.2305 17.4212 45.7908C10.9152 46.3289 2.30283 50.1866 2.30283 50.1866L2.29663 48.5253Z" fill="#F7FDFF"/>
<path d="M28.831 34.3474C20.1797 30.0137 11.6684 27.9256 2.49023 31.5385V35.4045C13.8049 31.4411 20.6076 32.9097 28.831 34.3474Z" fill="#59CD8B"/>
<path d="M12.2495 25.2951C9.24615 25.2951 6.0152 25.7978 2.49023 27.0322V30.0906C3.22784 29.8853 6.57917 28.4243 11.8011 28.425C15.2652 28.425 19.5533 29.0678 24.4444 31.1471C25.3845 31.5436 24.1818 30.9333 28.8828 33.1428C33.2085 35.1776 37.0636 35.7941 40.1479 35.7941C44.8946 35.7941 47.8147 34.3342 47.8147 34.3342V31.0128C47.8147 31.0128 43.8144 32.6008 40.1319 32.6008C39.7674 32.6008 39.4074 32.5854 39.0535 32.5515C38.4133 32.4902 35.2929 32.8809 29.6945 30.2377C24.4886 27.7819 18.9292 25.2944 12.2495 25.2951Z" fill="#59CD8B"/>
<path d="M27.8049 27.9206C28.8897 28.439 31.15 29.5895 32.8065 30.3118C26.7678 24.6922 19.9823 20.5942 10.8731 20.6974C7.93327 20.7306 5.17655 21.0943 2.49023 21.8811V25.5652C13.0217 21.8917 21.3842 24.8524 27.8049 27.9206Z" fill="#59CD8B"/>
<path d="M47.8147 7.72865C47.8147 4.43934 45.5008 2.11015 42.1947 2.11015C40.6309 2.11015 8.09816 2.11015 8.09816 2.11015C4.82526 2.11015 2.49023 4.43788 2.49023 7.72719C2.49023 9.74813 2.49023 20.2114 2.49023 20.2114C2.49023 20.2114 10.4981 17.8297 19.2327 20.2235C24.378 21.633 27.0472 23.4785 33.1552 28.169C37.2763 31.3324 41.6224 31.0253 43.5616 30.527C46.4814 29.8561 47.8151 29.19 47.8151 29.19V7.72865H47.8147Z" fill="#B1E6FB"/>
<path d="M40.5498 31.8074C40.5498 36.1163 37.0551 39.6125 32.7462 39.6125C28.4351 39.6125 24.9412 36.1167 24.9412 31.8074C24.9412 27.4967 28.4351 24.0038 32.7462 24.0038C37.0551 24.0038 40.5498 27.4963 40.5498 31.8074Z" fill="#F7FDFF"/>
<path d="M259.704 45.9015H250.995C250.995 47.3154 251.382 48.4021 252.157 49.1617C252.841 49.8235 253.721 50.1544 254.797 50.1544C256.023 50.1544 257.045 49.7972 257.865 49.0827L258.768 50.6282C258.437 50.9591 257.929 51.2449 257.245 51.4856C256.387 51.8015 255.432 51.9594 254.379 51.9594C252.86 51.9594 251.57 51.4442 250.51 50.4139C249.329 49.2783 248.739 47.7516 248.739 45.8338C248.739 43.8408 249.344 42.2426 250.555 41.0393C251.638 39.9639 252.92 39.4261 254.402 39.4261C256.124 39.4261 257.474 39.9112 258.452 40.8814C259.399 41.814 259.873 43.0511 259.873 44.5929C259.873 45.0667 259.817 45.5029 259.704 45.9015ZM254.503 41.2311C253.548 41.2311 252.747 41.5395 252.101 42.1561C251.484 42.7428 251.134 43.4723 251.051 44.3447H257.741C257.741 43.4798 257.47 42.7578 256.929 42.1787C256.335 41.547 255.526 41.2311 254.503 41.2311Z" fill="#091A3E"/>
<path d="M241.367 41.3439H239.968V39.6518H241.367V37.1248L243.51 36.3013V39.6518H246.827V41.3439H243.51V47.3455C243.51 48.3608 243.679 49.0828 244.018 49.5114C244.364 49.9401 244.916 50.1545 245.676 50.1545C246.225 50.1545 246.793 50.0153 247.379 49.7371L247.695 51.621C246.808 51.8466 245.834 51.9594 244.774 51.9594C243.818 51.9594 243.01 51.606 242.348 50.899C241.694 50.1845 241.367 49.2858 241.367 48.2028V41.3439Z" fill="#091A3E"/>
<path d="M230.226 39.6517V47.3567C230.226 49.2218 231.035 50.1544 232.652 50.1544C233.359 50.1544 234.005 49.9513 234.592 49.5452C235.179 49.1391 235.566 48.6691 235.754 48.1351V39.6517H237.897V51.7338H235.754V50.0642C235.513 50.538 235.028 50.9742 234.299 51.3728C233.577 51.7638 232.87 51.9594 232.178 51.9594C230.854 51.9594 229.839 51.5796 229.132 50.82C228.432 50.0604 228.083 48.9812 228.083 47.5823V39.6517H230.226Z" fill="#091A3E"/>
<path d="M220.034 41.3439H218.635V39.6518H220.034V37.1248L222.177 36.3013V39.6518H225.494V41.3439H222.177V47.3455C222.177 48.3608 222.346 49.0828 222.685 49.5114C223.031 49.9401 223.583 50.1545 224.343 50.1545C224.892 50.1545 225.46 50.0153 226.046 49.7371L226.362 51.621C225.475 51.8466 224.501 51.9594 223.44 51.9594C222.485 51.9594 221.677 51.606 221.015 50.899C220.361 50.1845 220.034 49.2858 220.034 48.2028V41.3439Z" fill="#091A3E"/>
<path d="M215.12 35.0829C215.489 35.0829 215.801 35.2145 216.057 35.4778C216.32 35.7335 216.452 36.0418 216.452 36.4028C216.452 36.7713 216.32 37.0872 216.057 37.3504C215.801 37.6061 215.489 37.734 215.12 37.734C214.759 37.734 214.447 37.6061 214.184 37.3504C213.928 37.0872 213.8 36.7713 213.8 36.4028C213.8 36.0343 213.928 35.7222 214.184 35.4665C214.44 35.2108 214.752 35.0829 215.12 35.0829ZM213.947 51.7338V41.4567H212.289V39.6517H216.091V51.7338H213.947Z" fill="#091A3E"/>
<path d="M204.747 41.3439H203.348V39.6518H204.747V37.1248L206.891 36.3013V39.6518H210.207V41.3439H206.891V47.3455C206.891 48.3608 207.06 49.0828 207.398 49.5114C207.744 49.9401 208.297 50.1545 209.057 50.1545C209.606 50.1545 210.173 50.0153 210.76 49.7371L211.076 51.621C210.188 51.8466 209.215 51.9594 208.154 51.9594C207.199 51.9594 206.391 51.606 205.729 50.899C205.074 50.1845 204.747 49.2858 204.747 48.2028V41.3439Z" fill="#091A3E"/>
<path d="M194.058 51.0118L194.814 48.9812C196.01 49.7634 196.972 50.1544 197.702 50.1544C199.026 50.1544 199.687 49.5979 199.687 48.4848C199.687 47.6876 199.048 47.0033 197.77 46.4317C196.784 45.9804 196.119 45.6382 195.773 45.4051C195.434 45.172 195.137 44.9087 194.882 44.6154C194.633 44.3146 194.445 43.9987 194.318 43.6678C194.197 43.3294 194.137 42.9684 194.137 42.5848C194.137 41.5921 194.498 40.8175 195.22 40.2609C195.942 39.7044 196.886 39.4261 198.052 39.4261C198.932 39.4261 200.041 39.7044 201.38 40.2609L200.77 42.2464C199.921 41.5695 199.067 41.2311 198.21 41.2311C197.698 41.2311 197.266 41.3514 196.912 41.5921C196.566 41.8328 196.393 42.1373 196.393 42.5059C196.393 43.2805 196.833 43.8671 197.713 44.2657L199.247 44.9651C200.187 45.3938 200.872 45.8827 201.301 46.4317C201.729 46.9807 201.944 47.6688 201.944 48.4961C201.944 49.5791 201.564 50.4289 200.804 51.0456C200.045 51.6548 198.992 51.9594 197.645 51.9594C196.374 51.9594 195.179 51.6435 194.058 51.0118Z" fill="#091A3E"/>
<path d="M189.878 51.7338V44.7057C189.878 43.4196 189.683 42.5209 189.292 42.0095C188.908 41.4906 188.261 41.2311 187.351 41.2311C186.863 41.2311 186.351 41.3778 185.817 41.6711C185.283 41.9644 184.873 42.3254 184.587 42.754V51.7338H182.444V39.6518H183.911L184.587 41.2085C185.294 40.0203 186.449 39.4261 188.051 39.4261C190.698 39.4261 192.022 41.0356 192.022 44.2544V51.7338H189.878Z" fill="#091A3E"/>
<path d="M176.809 51.7338V35.207H179.065V51.7338H176.809Z" fill="#091A3E"/>
<path d="M162.955 53.7869C162.677 54.554 162.091 55.1933 161.196 55.7047C160.308 56.2161 159.315 56.4718 158.217 56.4718V54.554C159.112 54.554 159.879 54.3434 160.519 53.9223C161.158 53.5086 161.478 53.001 161.478 52.3993C161.478 51.7375 161.361 51.087 161.128 50.4477C160.895 49.8009 160.594 49.0037 160.225 48.0561L156.954 39.6517H159.142L162.696 48.9925L165.888 39.6517H168.077L162.955 53.7869Z" fill="#091A3E"/>
<path d="M156.158 41.7162C155.692 41.3928 155.222 41.2311 154.748 41.2311C153.989 41.2311 153.323 41.5808 152.751 42.2802C152.187 42.9797 151.905 43.822 151.905 44.8072V51.7338H149.762V39.6518H151.905V41.5808C152.688 40.1444 153.849 39.4261 155.391 39.4261C155.775 39.4261 156.328 39.4938 157.05 39.6292L156.158 41.7162Z" fill="#091A3E"/>
<path d="M144.51 50.3462C143.653 51.4217 142.341 51.9594 140.573 51.9594C139.626 51.9594 138.802 51.6172 138.103 50.9328C137.411 50.2409 137.065 49.3836 137.065 48.3607C137.065 47.1349 137.599 46.1008 138.667 45.2584C139.742 44.4086 141.111 43.9837 142.773 43.9837C143.224 43.9837 143.736 44.0815 144.307 44.277C144.307 42.3216 143.435 41.3439 141.69 41.3439C140.351 41.3439 139.321 41.7049 138.599 42.4269L137.697 40.6332C138.103 40.3023 138.663 40.0203 139.378 39.7871C140.1 39.5465 140.788 39.4261 141.442 39.4261C143.194 39.4261 144.465 39.8247 145.255 40.6219C146.052 41.4191 146.451 42.6864 146.451 44.4236V48.7556C146.451 49.816 146.767 50.5229 147.398 50.8764V51.9481C146.526 51.9481 145.872 51.824 145.435 51.5758C145.007 51.3277 144.698 50.9178 144.51 50.3462ZM144.307 45.7999C143.631 45.6495 143.157 45.5743 142.886 45.5743C141.803 45.5743 140.919 45.8526 140.235 46.4091C139.551 46.9656 139.208 47.6237 139.208 48.3833C139.208 49.6393 139.949 50.2672 141.431 50.2672C142.514 50.2672 143.473 49.7521 144.307 48.7217V45.7999Z" fill="#091A3E"/>
<path d="M132.716 51.7338V44.7057C132.716 43.4196 132.52 42.5209 132.129 42.0095C131.746 41.4906 131.099 41.2311 130.189 41.2311C129.7 41.2311 129.189 41.3778 128.655 41.6711C128.121 41.9644 127.711 42.3254 127.425 42.754V51.7338H125.282V39.6518H126.748L127.425 41.2085C128.132 40.0203 129.287 39.4261 130.888 39.4261C133.536 39.4261 134.859 41.0356 134.859 44.2544V51.7338H132.716Z" fill="#091A3E"/>
<path d="M121.135 35.0829C121.504 35.0829 121.816 35.2145 122.072 35.4778C122.335 35.7335 122.467 36.0418 122.467 36.4028C122.467 36.7713 122.335 37.0872 122.072 37.3504C121.816 37.6061 121.504 37.734 121.135 37.734C120.775 37.734 120.462 37.6061 120.199 37.3504C119.943 37.0872 119.816 36.7713 119.816 36.4028C119.816 36.0343 119.943 35.7222 120.199 35.4665C120.455 35.2108 120.767 35.0829 121.135 35.0829ZM119.962 51.7338V41.4567H118.304V39.6517H122.106V51.7338H119.962Z" fill="#091A3E"/>
<path d="M116.741 41.7162C116.275 41.3928 115.805 41.2311 115.331 41.2311C114.572 41.2311 113.906 41.5808 113.334 42.2802C112.77 42.9797 112.488 43.822 112.488 44.8072V51.7338H110.345V39.6518H112.488V41.5808C113.271 40.1444 114.432 39.4261 115.974 39.4261C116.358 39.4261 116.911 39.4938 117.633 39.6292L116.741 41.7162Z" fill="#091A3E"/>
<path d="M107.97 45.9015H99.2611C99.2611 47.3154 99.6484 48.4021 100.423 49.1617C101.107 49.8235 101.987 50.1544 103.063 50.1544C104.289 50.1544 105.312 49.7972 106.131 49.0827L107.034 50.6282C106.703 50.9591 106.195 51.2449 105.511 51.4856C104.653 51.8015 103.698 51.9594 102.645 51.9594C101.126 51.9594 99.8364 51.4442 98.776 50.4139C97.5953 49.2783 97.0049 47.7516 97.0049 45.8338C97.0049 43.8408 97.6103 42.2426 98.8211 41.0393C99.9041 39.9639 101.186 39.4261 102.668 39.4261C104.39 39.4261 105.74 39.9112 106.718 40.8814C107.665 41.814 108.139 43.0511 108.139 44.5929C108.139 45.0667 108.083 45.5029 107.97 45.9015ZM102.77 41.2311C101.814 41.2311 101.013 41.5395 100.367 42.1561C99.7499 42.7428 99.4002 43.4723 99.3175 44.3447H106.007C106.007 43.4798 105.736 42.7578 105.195 42.1787C104.601 41.547 103.792 41.2311 102.77 41.2311Z" fill="#091A3E"/>
<path d="M89.6325 41.3439H88.2336V39.6518H89.6325V37.1248L91.7759 36.3013V39.6518H95.0925V41.3439H91.7759V47.3455C91.7759 48.3608 91.9451 49.0828 92.2835 49.5114C92.6295 49.9401 93.1823 50.1545 93.9419 50.1545C94.4909 50.1545 95.0587 50.0153 95.6453 49.7371L95.9612 51.621C95.0737 51.8466 94.0998 51.9594 93.0394 51.9594C92.0842 51.9594 91.2758 51.606 90.6139 50.899C89.9596 50.1845 89.6325 49.2858 89.6325 48.2028V41.3439Z" fill="#091A3E"/>
<path d="M86.6598 45.9015H77.9508C77.9508 47.3154 78.3381 48.4021 79.1127 49.1617C79.7971 49.8235 80.6771 50.1544 81.7525 50.1544C82.9784 50.1544 84.0012 49.7972 84.821 49.0827L85.7234 50.6282C85.3925 50.9591 84.8849 51.2449 84.2005 51.4856C83.3431 51.8015 82.388 51.9594 81.3351 51.9594C79.8159 51.9594 78.5261 51.4442 77.4657 50.4139C76.285 49.2783 75.6946 47.7516 75.6946 45.8338C75.6946 43.8408 76.3 42.2426 77.5108 41.0393C78.5938 39.9639 79.8761 39.4261 81.3577 39.4261C83.0799 39.4261 84.4299 39.9112 85.4076 40.8814C86.3552 41.814 86.829 43.0511 86.829 44.5929C86.829 45.0667 86.7726 45.5029 86.6598 45.9015ZM81.4592 41.2311C80.5041 41.2311 79.7031 41.5395 79.0563 42.1561C78.4396 42.7428 78.0899 43.4723 78.0072 44.3447H84.6969C84.6969 43.4798 84.4261 42.7578 83.8846 42.1787C83.2905 41.547 82.482 41.2311 81.4592 41.2311Z" fill="#091A3E"/>
<path d="M69.0554 51.9594H67.9161L61.7566 35.207H64.261L68.514 47.3793L72.609 35.207H75.0344L69.0554 51.9594Z" fill="#091A3E"/>
<path d="M164.991 26.4706V19.4425C164.991 18.1565 164.796 17.2578 164.405 16.7463C164.021 16.2274 163.374 15.9679 162.464 15.9679C161.976 15.9679 161.464 16.1146 160.93 16.4079C160.396 16.7012 159.986 17.0622 159.701 17.4909V26.4706H157.557V14.3886H159.024L159.701 15.9454C160.407 14.7571 161.562 14.163 163.164 14.163C165.811 14.163 167.135 15.7724 167.135 18.9913V26.4706H164.991Z" fill="#091A3E"/>
<path d="M152.475 25.0831C151.617 26.1585 150.305 26.6962 148.538 26.6962C147.59 26.6962 146.767 26.3541 146.067 25.6697C145.375 24.9778 145.029 24.1204 145.029 23.0976C145.029 21.8717 145.563 20.8376 146.631 19.9953C147.707 19.1455 149.075 18.7205 150.738 18.7205C151.189 18.7205 151.7 18.8183 152.272 19.0138C152.272 17.0585 151.399 16.0808 149.655 16.0808C148.316 16.0808 147.286 16.4418 146.564 17.1637L145.661 15.3701C146.067 15.0391 146.627 14.7571 147.342 14.524C148.064 14.2833 148.752 14.163 149.406 14.163C151.159 14.163 152.43 14.5616 153.219 15.3588C154.017 16.156 154.415 17.4232 154.415 19.1605V23.4924C154.415 24.5528 154.731 25.2598 155.363 25.6133V26.685C154.49 26.685 153.836 26.5609 153.4 26.3127C152.971 26.0645 152.663 25.6546 152.475 25.0831ZM152.272 20.5368C151.595 20.3864 151.121 20.3112 150.85 20.3112C149.767 20.3112 148.884 20.5894 148.199 21.146C147.515 21.7025 147.173 22.3606 147.173 23.1201C147.173 24.3761 147.913 25.0041 149.395 25.0041C150.478 25.0041 151.437 24.4889 152.272 23.4586V20.5368Z" fill="#091A3E"/>
<path d="M141.504 9.81976C141.872 9.81976 142.185 9.95138 142.44 10.2146C142.703 10.4703 142.835 10.7787 142.835 11.1396C142.835 11.5082 142.703 11.824 142.44 12.0873C142.185 12.343 141.872 12.4708 141.504 12.4708C141.143 12.4708 140.831 12.343 140.568 12.0873C140.312 11.824 140.184 11.5082 140.184 11.1396C140.184 10.7711 140.312 10.459 140.568 10.2033C140.823 9.94762 141.135 9.81976 141.504 9.81976ZM140.331 26.4706V16.1936H138.672V14.3886H142.474V26.4706H140.331Z" fill="#091A3E"/>
<path d="M127.487 29.776L128.649 28.0612C129.897 28.896 131.048 29.3134 132.101 29.3134C133.071 29.3134 133.834 29.1442 134.391 28.8058C134.955 28.4749 135.237 28.0612 135.237 27.5649C135.237 26.5872 134.53 26.0983 133.116 26.0983C132.875 26.0983 132.439 26.1585 131.808 26.2788C131.176 26.3992 130.683 26.4593 130.33 26.4593C128.615 26.4593 127.758 25.8126 127.758 24.519C127.758 24.1204 127.957 23.7594 128.356 23.436C128.762 23.1126 129.262 22.8795 129.856 22.7366C128.156 21.9394 127.306 20.5556 127.306 18.5851C127.306 17.3217 127.746 16.2688 128.626 15.4265C129.506 14.5841 130.593 14.163 131.887 14.163C133.075 14.163 134.004 14.4074 134.673 14.8962L135.745 13.6102L137.143 14.9301L135.857 15.9003C136.406 16.6147 136.681 17.5473 136.681 18.698C136.681 19.9163 136.301 20.9391 135.542 21.7664C134.782 22.5937 133.785 23.0675 132.552 23.1878L130.781 23.3683C130.57 23.3909 130.288 23.4736 129.935 23.6165C129.581 23.7519 129.405 23.9324 129.405 24.158C129.405 24.4663 129.773 24.6205 130.51 24.6205C130.834 24.6205 131.337 24.5641 132.022 24.4513C132.706 24.331 133.214 24.2708 133.545 24.2708C134.733 24.2708 135.658 24.5566 136.32 25.1282C136.989 25.6922 137.324 26.4781 137.324 27.4859C137.324 28.599 136.824 29.4977 135.824 30.1821C134.831 30.8665 133.571 31.2087 132.044 31.2087C131.262 31.2087 130.439 31.0695 129.574 30.7913C128.709 30.513 128.013 30.1746 127.487 29.776ZM132.033 15.889C131.289 15.889 130.679 16.1522 130.206 16.6786C129.739 17.2051 129.506 17.8444 129.506 18.5964C129.506 19.4388 129.732 20.1382 130.183 20.6947C130.642 21.2437 131.259 21.5182 132.033 21.5182C132.793 21.5182 133.387 21.2512 133.816 20.7173C134.244 20.1758 134.459 19.4688 134.459 18.5964C134.459 17.8444 134.225 17.2051 133.759 16.6786C133.3 16.1522 132.725 15.889 132.033 15.889Z" fill="#091A3E"/>
<path d="M125.721 20.6383H117.012C117.012 22.0522 117.399 23.1389 118.174 23.8985C118.858 24.5604 119.738 24.8913 120.814 24.8913C122.04 24.8913 123.062 24.534 123.882 23.8196L124.785 25.3651C124.454 25.696 123.946 25.9818 123.262 26.2224C122.404 26.5383 121.449 26.6962 120.396 26.6962C118.877 26.6962 117.587 26.1811 116.527 25.1507C115.346 24.0151 114.756 22.4884 114.756 20.5706C114.756 18.5776 115.361 16.9795 116.572 15.7762C117.655 14.7007 118.937 14.163 120.419 14.163C122.141 14.163 123.491 14.6481 124.469 15.6182C125.416 16.5508 125.89 17.788 125.89 19.3297C125.89 19.8035 125.834 20.2397 125.721 20.6383ZM120.52 15.9679C119.565 15.9679 118.764 16.2763 118.118 16.893C117.501 17.4796 117.151 18.2091 117.068 19.0815H123.758C123.758 18.2166 123.487 17.4947 122.946 16.9156C122.352 16.2838 121.543 15.9679 120.52 15.9679Z" fill="#091A3E"/>
<path d="M109.753 26.6963H109.189L105.646 18.4724L102.115 26.6963H101.551L97.2307 14.3548H99.5208L102.104 22.2854L105.319 14.3548H105.883L109.2 22.2854L111.975 14.3548H114.085L109.753 26.6963Z" fill="#091A3E"/>
<path d="M96.401 16.453C95.9347 16.1296 95.4647 15.9679 94.9909 15.9679C94.2313 15.9679 93.5657 16.3177 92.9941 17.0171C92.4301 17.7165 92.148 18.5588 92.148 19.544V26.4706H90.0046V14.3886H92.148V16.3177C92.9302 14.8812 94.0921 14.163 95.6339 14.163C96.0174 14.163 96.5702 14.2307 97.2922 14.366L96.401 16.453Z" fill="#091A3E"/>
<path d="M76.8679 20.4014C76.8679 18.5363 77.368 17.0321 78.3683 15.889C79.3761 14.7383 80.6997 14.163 82.3392 14.163C84.069 14.163 85.4114 14.7158 86.3666 15.8213C87.3217 16.9193 87.7993 18.446 87.7993 20.4014C87.7993 22.3493 87.3104 23.8873 86.3327 25.0154C85.355 26.136 84.0239 26.6962 82.3392 26.6962C80.617 26.6962 79.2745 26.1284 78.3119 24.9928C77.3492 23.8572 76.8679 22.3267 76.8679 20.4014ZM79.1241 20.4014C79.1241 23.4323 80.1958 24.9477 82.3392 24.9477C83.3395 24.9477 84.1216 24.5416 84.6857 23.7293C85.2573 22.9171 85.5431 21.8078 85.5431 20.4014C85.5431 17.4082 84.4751 15.9115 82.3392 15.9115C81.3615 15.9115 80.5794 16.3101 79.9928 17.1073C79.4137 17.9045 79.1241 19.0026 79.1241 20.4014Z" fill="#091A3E"/>
<path d="M73.9854 26.6962L65.4456 14.6142V26.4706H63.3022V9.94385H64.2047L72.5189 21.3716V9.94385H74.6623V26.6962H73.9854Z" fill="#091A3E"/>
</svg>
